<?xml version="1.0" encoding="UTF-8" standalone="no"?>
<!-- Generator: Adobe Illustrator 14.0.0, SVG Export Plug-In . SVG Version: 6.00 Build 43363)  -->

<svg
   xmlns:dc="http://purl.org/dc/elements/1.1/"
   xmlns:cc="http://creativecommons.org/ns#"
   xmlns:rdf="http://www.w3.org/1999/02/22-rdf-syntax-ns#"
   xmlns:svg="http://www.w3.org/2000/svg"
   xmlns="http://www.w3.org/2000/svg"
   xmlns:sodipodi="http://sodipodi.sourceforge.net/DTD/sodipodi-0.dtd"
   xmlns:inkscape="http://www.inkscape.org/namespaces/inkscape"
   id="Calque_1"
   enable-background="new 0 0 200 200"
   xml:space="preserve"
   transform="rotate(-53.05 168.76 51.882) matrix(.25623 0 0 -.22316 128.91 64.814)"
   viewBox="0 0 200 200"
   version="1.1"
   y="0px"
   x="0px"
   inkscape:version="0.48.4 r9939"
   width="100%"
   height="100%"
   sodipodi:docname="Metacognition.svg"><defs
   id="defs3358" /><sodipodi:namedview
   pagecolor="#ffffff"
   bordercolor="#666666"
   borderopacity="1"
   objecttolerance="10"
   gridtolerance="10"
   guidetolerance="10"
   inkscape:pageopacity="0"
   inkscape:pageshadow="2"
   inkscape:window-width="1366"
   inkscape:window-height="715"
   id="namedview3356"
   showgrid="false"
   inkscape:zoom="2.36"
   inkscape:cx="117.45692"
   inkscape:cy="75.713777"
   inkscape:window-x="-8"
   inkscape:window-y="-8"
   inkscape:window-maximized="1"
   inkscape:current-layer="Calque_1" />
<title
   id="title3343">imagebot_2</title>
<path
   id="imagebot_5"
   d="m -212.94615,111.91522 c 6.2,-12.042002 4.591,-44.846002 3.75,-58.459002 0,0 -8.111,-6.824 -10.626,-10.134 -4.664,-6.146 -10.132,-14.701 -12.473,-21.854 -2.67,-8.163 -3.941,-19.8399999 -3.228,-28.3849999 0.667,-7.9750001 2.972,-18.9290001 7.389,-25.6820001 4.81,-7.351 14.722,-14.844 22.632,-18.92 7.992,-4.121 20.081,-6.985 29.097,-7.663 8.751,-0.651 20.594,1.008 29.098,3.158 9.738,2.462 22.725,7.288 30.479,13.515 18.717999,15.95 18.517999,36.7520001 19.858999,59.027 1.336,5.29 5.937,11.374 9.236,15.771 1.454,1.929 4.453,3.711 5.543,5.853 0.694,1.355 1.519,3.56 0.922,4.961 -0.832,1.97 -4.086,3.004 -5.998,4.049 -1.188,0.65 -3.494,0.642 -4.16,1.802 -1.572,2.739 2.605,7.172 0.695,9.688 -1.007,1.318 -4.848,1.578 -4.848,1.578 0,0 4.755,5.879 2.771,5.859 -1.106,-0.018 -4.474,5.451 -3.694,7.208 0,0 2.267,5.265 2.304,7.654 0.037,2.657 -0.43,6.637 -2.304,8.562 -1.911,1.953 -6.117999,1.997 -8.778999,2.703 -4.252,1.123 -11.11,0.463 -15.7,1.579 -3.045,0.74 -7.051,2.193 -9.703,3.826 -1.91,1.178 -4.617,2.953002 -5.541,4.960002 -2.908,6.28 -0.539,3.627 -1.381,10.478 l -75.778,-0.793"
   inkscape:connector-curvature="0"
   style="fill:#fffdfc;stroke:#333333;stroke-width:5" />








<metadata
   id="metadata3354"><rdf:RDF><cc:Work><dc:format>image/svg+xml</dc:format><dc:type
         rdf:resource="http://purl.org/dc/dcmitype/StillImage" /><cc:license
         rdf:resource="http://creativecommons.org/licenses/publicdomain/" /><dc:publisher><cc:Agent
           rdf:about="http://openclipart.org/"><dc:title>Openclipart</dc:title></cc:Agent></dc:publisher><dc:title>imagebot_2</dc:title></cc:Work><cc:License
       rdf:about="http://creativecommons.org/licenses/publicdomain/"><cc:permits
         rdf:resource="http://creativecommons.org/ns#Reproduction" /><cc:permits
         rdf:resource="http://creativecommons.org/ns#Distribution" /><cc:permits
         rdf:resource="http://creativecommons.org/ns#DerivativeWorks" /></cc:License></rdf:RDF></metadata><g
   id="g4301"
   inkscape:export-filename="E:\RasterBrain\logo.png"
   inkscape:export-xdpi="125.13161"
   inkscape:export-ydpi="125.13161"><g
     transform="matrix(0.63290385,0,0,0.6208022,33.93942,54.869624)"
     id="g3360"><path
       style="fill:#919899;stroke:#454a4b;stroke-width:3"
       inkscape:connector-curvature="0"
       id="imagebot_4"
       d="m 88.064,131.7 c 0,0 -3.314,2.55 -4.997,3.019 -1.512,0.421 -3.772,0.577 -5.231,0 -1.215,-0.487 -3.177,-3.019 -3.177,-3.019 -13.099,3.293 -19.447,-8.039 -20.239,-14.828 0,0 -4.582,-1.176 -6.59,-1.387 C 42.141,114.87 39.223,100.133 39.188,99.261 38.116,73.266 41.645,60.439 58.966,43.418 66.502,36.004 77.854,32.168 94.888,31.6 c 10.74,-0.359 19.733,0.128 27.053,3.936 0,0 14.998,6.387 20.463,10.662 5.248,4.101 10.921,10.818 14.783,16.682 5.222,11.607 3.16,29.298 -9.104,31.28 l -14.312,2.321 c -4.07,0.708 5.41,8.46 -5.69,15.296 -9.201,9.451 -20.031,0.99 -20.913,1.854 0,0 -3.943,5.671 -5.23,8.341 -1.242,2.587 -2.484,6.248 -3.188,9.038 -0.541,2.176 0.783,6.294 -1.134,7.413 -4.646,2.707 -9.552,0.918 -9.552,-0.229 v -6.48 z" /><line
       style="fill:none;stroke:#3d3d3d;stroke-width:9;stroke-linecap:round"
       id="imagebot_8"
       y2="26.042"
       x2="164.84"
       y1="33.724998"
       x1="158.67" /><line
       style="fill:none;stroke:#3d3d3d;stroke-width:9;stroke-linecap:round"
       id="imagebot_9"
       y2="7.1399999"
       x2="123.09"
       y1="16.625"
       x1="120.42" /><line
       style="fill:none;stroke:#3d3d3d;stroke-width:9;stroke-linecap:round"
       id="imagebot_10"
       y2="6.0710001"
       x2="72.694"
       y1="15.694"
       x1="74.816002" /><line
       style="fill:none;stroke:#3d3d3d;stroke-width:9;stroke-linecap:round"
       id="imagebot_11"
       y2="117.85"
       x2="16.237"
       y1="113.92"
       x1="25.271999" /><line
       style="fill:none;stroke:#3d3d3d;stroke-width:9;stroke-linecap:round"
       id="imagebot_12"
       y2="26.072001"
       x2="33.632"
       y1="33.693001"
       x1="39.877998" /><line
       style="fill:none;stroke:#3d3d3d;stroke-width:9;stroke-linecap:round"
       id="imagebot_13"
       y2="66.095001"
       x2="10.891"
       y1="67.669998"
       x1="20.618999" /><line
       style="fill:none;stroke:#3d3d3d;stroke-width:9;stroke-linecap:round"
       id="imagebot_14"
       y2="64.724998"
       x2="189.53999"
       y1="67.040001"
       x1="179.97" /></g><g
     id="flowRoot3426"
     style="font-size:40px;font-style:normal;font-variant:normal;font-weight:normal;font-stretch:normal;line-height:125%;letter-spacing:0px;word-spacing:0px;fill:#2c5aa0;fill-opacity:1;stroke:none;font-family:Impact;-inkscape-font-specification:Impact"
     transform="translate(24.405924,-24.817179)"><path
       style="fill:#cccccc"
       d="m 4.046875,161.39396 5.8696372,0 c 3.9130798,3e-5 6.5622928,0.15165 7.9476468,0.45486 1.385322,0.30327 2.514603,1.07785 3.387844,2.32374 0.873204,1.24596 1.309815,3.2335 1.309835,5.96263 -2e-5,2.49186 -0.308602,4.16628 -0.925748,5.02324 -0.617184,0.857 -1.831817,1.37119 -3.643902,1.54257 1.64138,0.40873 2.744398,0.95588 3.309057,1.64145 0.564621,0.68561 0.915879,1.31515 1.053777,1.88867 0.137857,0.57353 0.206796,2.15235 0.206816,4.73647 l 0.42732,10.58984 -8.128757,-2.14526 0,-10.63977 c -1.2e-5,-1.71395 -0.134607,-2.7753 -0.403783,-3.18403 -0.269201,-0.40869 -0.975001,-0.61305 -2.117403,-0.61307 l 0,14.43687 -8.29234,0 z m 8.29234,5.4781 0,7.11956 c 0.932303,2e-5 1.585578,-0.12854 1.959829,-0.38564 0.374225,-0.25708 0.561345,-1.091 0.561357,-2.50174 l 0,-1.76011 c -1.2e-5,-1.01518 -0.180565,-1.68098 -0.541661,-1.99743 -0.361119,-0.3164 -1.02096,-0.47461 -1.979525,-0.47464 z"
       id="path4248"
       inkscape:connector-curvature="0"
       sodipodi:nodetypes="cscccscccsccsccccccccsccc" /><path
       style="fill:#cccccc"
       d="m 32.66628,177.33385 -7.465076,0 0,-1.76011 c -1e-6,-2.03037 0.233078,-3.59601 0.699236,-4.69692 0.466155,-1.10088 1.401751,-2.07323 2.80679,-2.91704 1.40503,-0.84378 3.230262,-1.26568 5.475701,-1.2657 2.69188,2e-5 4.720644,0.47796 6.086303,1.43379 1.365624,0.9559 2.186322,2.1293 2.462095,3.52022 0.275737,1.39097 0.413613,4.25528 0.413632,8.59291 l 0,13.17117 -7.74083,0 0,-2.33362 c -0.485865,0.93609 -1.112878,1.63816 -1.881041,2.1062 -0.768183,0.46804 -1.684082,0.70206 -2.7477,0.70206 -1.391909,0 -2.668915,-0.39224 -3.831021,-1.1767 -1.162111,-0.78447 -1.743166,-2.50173 -1.743165,-5.15179 l 0,-2.15564 c -1e-6,-1.96447 0.308583,-3.30267 0.925749,-4.01464 0.617163,-0.71194 2.146943,-1.54256 4.589347,-2.49184 2.613096,-1.02836 4.011565,-1.72055 4.195412,-2.07654 0.183826,-0.35596 0.275744,-1.08109 0.275755,-2.17542 -1.1e-5,-1.37115 -0.101778,-2.26439 -0.3053,-2.67972 -0.203543,-0.41528 -0.541672,-0.62294 -1.014384,-0.62296 -0.538387,2e-5 -0.873232,0.17472 -1.004535,0.52408 -0.13132,0.3494 -0.196976,1.25583 -0.196968,2.71927 z m 2.521187,3.59933 c -1.273734,0.93611 -2.012362,1.72057 -2.215886,2.3534 -0.203543,0.63286 -0.305309,1.54259 -0.305301,2.72917 -8e-6,1.358 0.08863,2.23475 0.265907,2.63028 0.177261,0.39553 0.52852,0.59331 1.053777,0.5933 0.498974,1e-5 0.823971,-0.15492 0.97499,-0.46475 0.150998,-0.30983 0.226502,-1.12396 0.226513,-2.4424 z"
       id="path4250"
       inkscape:connector-curvature="0" /><path
       style="fill:#cccccc"
       d="m 62.132647,175.55397 -7.051443,0 0,-1.42391 c -1.1e-5,-1.21295 -0.06895,-1.98093 -0.206816,-2.30397 -0.137888,-0.323 -0.482581,-0.48451 -1.034081,-0.48453 -0.446469,2e-5 -0.781313,0.14835 -1.004535,0.44497 -0.223238,0.29667 -0.334853,0.74165 -0.334845,1.33492 -8e-6,0.80426 0.0558,1.39426 0.167423,1.77 0.111606,0.37577 0.446451,0.78778 1.004534,1.23603 0.558066,0.44829 1.703761,1.10091 3.437086,1.95788 2.311073,1.13387 3.827723,2.2018 4.549954,3.2038 0.722197,1.00202 1.083305,2.45889 1.083323,4.37061 -1.8e-5,2.13588 -0.275773,3.74766 -0.827265,4.83537 -0.551526,1.08771 -1.47399,1.92492 -2.767395,2.51161 -1.293435,0.58671 -2.852761,0.88006 -4.677983,0.88006 -2.02221,0 -3.752241,-0.31643 -5.190098,-0.94928 -1.437868,-0.63283 -2.425989,-1.48982 -2.964365,-2.57094 -0.538379,-1.08111 -0.807568,-2.71597 -0.807567,-4.90458 l 0,-1.2657 7.051443,0 0,1.66123 c -8e-6,1.41073 0.08863,2.32704 0.265907,2.74894 0.177262,0.4219 0.52852,0.63286 1.053776,0.63285 0.564631,1e-5 0.958566,-0.14173 1.181806,-0.4252 0.22322,-0.28345 0.334835,-0.88005 0.334846,-1.78978 -1.1e-5,-1.2525 -0.144454,-2.03697 -0.433329,-2.35341 -0.302027,-0.31641 -1.844939,-1.2525 -4.628741,-2.80827 -2.337353,-1.31842 -3.762084,-2.5149 -4.274199,-3.58944 -0.512116,-1.0745 -0.768174,-2.35008 -0.768174,-3.82675 0,-2.0963 0.275754,-3.64216 0.827265,-4.6376 0.551507,-0.9954 1.487102,-1.76338 2.806789,-2.30397 1.319678,-0.54053 2.852742,-0.81081 4.599196,-0.81083 1.733304,2e-5 3.207278,0.22086 4.421925,0.6625 1.214619,0.44171 2.146931,1.02512 2.796941,1.75023 0.649977,0.72517 1.043911,1.39757 1.181806,2.01721 0.137859,0.61969 0.206799,1.58874 0.206816,2.90715 z"
       id="path4252"
       inkscape:connector-curvature="0" /><path
       style="fill:#cccccc"
       d="m 95.183826,180.75519 -10.301411,0 0,5.67586 c -9e-6,1.1866 0.08535,1.9513 0.256058,2.29409 0.170696,0.34279 0.498975,0.5142 0.984839,0.51419 0.604023,1e-5 1.007806,-0.22743 1.211351,-0.6823 0.203522,-0.45485 0.305288,-1.3349 0.3053,-2.64016 l 0,-3.4609 7.543863,0 0,1.9381 c -2e-5,1.62168 -0.101787,2.86761 -0.305301,3.73777 -0.203551,0.87017 -0.679556,1.79967 -1.428015,2.7885 -0.748495,0.98882 -1.697221,1.73044 -2.846183,2.22485 -1.148992,0.49441 -2.590137,0.74162 -4.323441,0.74162 -1.6808,0 -3.164621,-0.24391 -4.45147,-0.73173 -1.28686,-0.48782 -2.288112,-1.15693 -3.003757,-2.00731 -0.715652,-0.85039 -1.211353,-1.78648 -1.487107,-2.80828 -0.275756,-1.02178 -0.413632,-2.50832 -0.413631,-4.45961 l 0,-7.65351 c -10e-7,-2.29407 0.308581,-4.10361 0.925748,-5.42867 0.617162,-1.325 1.628262,-2.34019 3.033302,-3.04558 1.40503,-0.70534 3.020163,-1.05802 4.845406,-1.05804 2.232287,2e-5 4.073933,0.42521 5.524943,1.27558 1.450979,0.85042 2.468644,1.97768 3.052999,3.38179 0.584318,1.40415 0.876487,3.37851 0.876507,5.92307 z m -7.977192,-4.27174 0,-1.91832 c -1.2e-5,-1.35796 -0.07223,-2.23473 -0.216664,-2.63027 -0.144454,-0.39552 -0.439906,-0.59328 -0.886356,-0.5933 -0.551518,2e-5 -0.892929,0.16813 -1.024232,0.5043 -0.13132,0.33622 -0.196976,1.24265 -0.196967,2.71927 l 0,1.91832 z"
       id="path4254"
       inkscape:connector-curvature="0" /><path
       style="fill:#cccccc"
       d="m 105.76099,167.16871 -0.31515,3.44111 c 1.15553,-2.46544 2.82976,-3.77069 5.02268,-3.91574 l 0,9.23564 c -1.45758,2e-5 -2.52776,0.19778 -3.21057,0.5933 -0.68284,0.39554 -1.10303,0.94599 -1.26059,1.65134 -0.15759,0.70538 -0.23638,2.33034 -0.23637,4.87491 l 0,10.3629 -7.957494,0 0,-26.24346 z"
       id="path4256"
       inkscape:connector-curvature="0" /><path
       style="fill:#cccccc"
       d="m 119.54873,161.39396 8.27264,0 c 2.61309,3e-5 4.59262,0.2044 5.93858,0.61307 1.34593,0.40875 2.43253,1.23606 3.25981,2.48196 0.82725,1.24595 1.24088,3.25327 1.2409,6.02196 -2e-5,1.8722 -0.29219,3.17745 -0.87651,3.91574 -0.58435,0.73835 -1.73661,1.30527 -3.45678,1.70079 1.91713,0.43511 3.21712,1.15695 3.89996,2.16553 0.6828,1.00862 1.02421,2.55448 1.02423,4.6376 l 0,2.96648 c -2e-5,2.16224 -0.24623,3.76414 -0.73862,4.8057 -0.49244,1.04157 -1.27704,1.75353 -2.35377,2.13587 -1.07677,0.38234 -3.28281,0.57351 -6.61812,0.57351 l -9.59232,0 z m 8.29234,5.4781 0,7.11956 c 0.35453,-0.0132 0.63028,-0.0198 0.82726,-0.0198 0.81412,2e-5 1.33281,-0.20104 1.55605,-0.60319 0.22321,-0.40209 0.33483,-1.55243 0.33484,-3.451 -1e-5,-1.00199 -0.0919,-1.70406 -0.27575,-2.1062 -0.18385,-0.4021 -0.4235,-0.6559 -0.71893,-0.7614 -0.29546,-0.10545 -0.86996,-0.16478 -1.72347,-0.17798 z m 0,12.10324 0,8.95878 c 1.16866,-0.0396 1.91386,-0.22413 2.23558,-0.55375 0.32171,-0.3296 0.48256,-1.14044 0.48257,-2.43251 l 0,-2.98626 c -1e-5,-1.37116 -0.14445,-2.20177 -0.43332,-2.49185 -0.2889,-0.29003 -1.05051,-0.45484 -2.28483,-0.49441 z"
       id="path4258"
       inkscape:connector-curvature="0" /><path
       style="fill:#cccccc"
       d="m 149.5666,167.16871 -0.31514,3.44111 c 1.15553,-2.46544 2.82976,-3.77069 5.02267,-3.91574 l 0,9.23564 c -1.45757,2e-5 -2.52776,0.19778 -3.21058,0.5933 -0.68282,0.39554 -1.10301,0.94599 -1.26059,1.65134 -0.15757,0.70538 -0.23637,2.33034 -0.23636,4.87491 l 0,10.3629 -7.95749,0 0,-26.24346 z"
       id="path4260"
       inkscape:connector-curvature="0" /><path
       style="fill:#cccccc"
       d="m 163.13768,177.33385 -7.46507,0 0,-1.76011 c 0,-2.03037 0.23307,-3.59601 0.69923,-4.69692 0.46615,-1.10088 1.40175,-2.07323 2.80679,-2.91704 1.40503,-0.84378 3.23026,-1.26568 5.4757,-1.2657 2.69188,2e-5 4.72064,0.47796 6.0863,1.43379 1.36562,0.9559 2.18632,2.1293 2.4621,3.52022 0.27573,1.39097 0.41361,4.25528 0.41363,8.59291 l 0,13.17117 -7.74084,0 0,-2.33362 c -0.48586,0.93609 -1.11287,1.63816 -1.88103,2.1062 -0.76819,0.46804 -1.68408,0.70206 -2.7477,0.70206 -1.39191,0 -2.66892,-0.39224 -3.83103,-1.1767 -1.1621,-0.78447 -1.74315,-2.50173 -1.74315,-5.15179 l 0,-2.15564 c 0,-1.96447 0.30858,-3.30267 0.92575,-4.01464 0.61715,-0.71194 2.14694,-1.54256 4.58934,-2.49184 2.61309,-1.02836 4.01156,-1.72055 4.19541,-2.07654 0.18382,-0.35596 0.27574,-1.08109 0.27575,-2.17542 -1e-5,-1.37115 -0.10177,-2.26439 -0.30529,-2.67972 -0.20355,-0.41528 -0.54167,-0.62294 -1.01439,-0.62296 -0.53839,2e-5 -0.87323,0.17472 -1.00454,0.52408 -0.13131,0.3494 -0.19697,1.25583 -0.19696,2.71927 z m 2.52118,3.59933 c -1.27373,0.93611 -2.01236,1.72057 -2.21588,2.3534 -0.20355,0.63286 -0.30531,1.54259 -0.3053,2.72917 -10e-6,1.358 0.0886,2.23475 0.2659,2.63028 0.17727,0.39553 0.52852,0.59331 1.05378,0.5933 0.49898,1e-5 0.82397,-0.15492 0.97499,-0.46475 0.151,-0.30983 0.2265,-1.12396 0.22651,-2.4424 z"
       id="path4262"
       inkscape:connector-curvature="0" /><path
       style="fill:#cccccc"
       d="m 184.54807,161.39396 0,4.17285 -8.19386,0 0,-4.17285 z m 0,5.77475 0,26.24346 -8.19386,0 0,-26.24346 z"
       id="path4264"
       inkscape:connector-curvature="0" /><path
       sodipodi:nodetypes="cscccscccsccsccccccccsccc"
       inkscape:connector-curvature="0"
       id="path4226"
       d="m 4.046875,163.39396 5.8203125,0 c 3.8801965,3e-5 6.5071475,0.14977 7.8808595,0.44922 1.373681,0.29951 2.493472,1.06448 3.359375,2.29492 0.865866,1.2305 1.298808,3.19339 1.298828,5.88867 -2e-5,2.46096 -0.306009,4.11461 -0.917969,4.96094 -0.611997,0.84637 -1.816423,1.35418 -3.613281,1.52344 1.627587,0.40366 2.721336,0.94402 3.28125,1.62109 0.559877,0.6771 0.908183,1.29884 1.044922,1.86524 0.136699,0.56642 0.205058,2.12566 0.205078,4.67773 l 0.423729,10.45849 -8.060448,-2.11865 0,-10.50781 c -1.2e-5,-1.69269 -0.133476,-2.74087 -0.40039,-3.14453 -0.266939,-0.40363 -0.966808,-0.60545 -2.09961,-0.60547 l 0,14.25781 -8.222656,0 z m 8.222656,5.41016 0,7.03125 c 0.924469,2e-5 1.572254,-0.12694 1.94336,-0.38086 0.371081,-0.25389 0.556628,-1.07746 0.55664,-2.47071 l 0,-1.73828 c -1.2e-5,-1.00258 -0.179048,-1.66013 -0.537109,-1.97265 -0.358085,-0.31248 -1.012381,-0.46873 -1.962891,-0.46875 z" /><path
       style="fill:#cccccc"
       d="m 195.47977,167.16871 -0.13788,2.41274 c 0.57777,-0.96244 1.28357,-1.68428 2.1174,-2.16553 0.83383,-0.48121 1.79568,-0.72182 2.88558,-0.72184 1.36563,2e-5 2.48178,0.32303 3.34845,0.96905 0.86664,0.64605 1.42472,1.46019 1.67423,2.4424 0.24948,0.98225 0.37423,2.62041 0.37424,4.91446 l 0,18.39218 -7.95749,0 0,-18.17463 c -1e-5,-1.80624 -0.0591,-2.90714 -0.17727,-3.30268 -0.1182,-0.39552 -0.44648,-0.59328 -0.98484,-0.5933 -0.56466,2e-5 -0.91919,0.22745 -1.06363,0.68229 -0.14445,0.45488 -0.21667,1.67114 -0.21667,3.64877 l 0,17.73955 -7.95749,0 0,-26.24346 z"
       id="path4266"
       inkscape:connector-curvature="0" /><path
       inkscape:connector-curvature="0"
       id="path4228"
       d="m 32.425781,179.13615 -7.402344,0 0,-1.73828 c -1e-6,-2.00519 0.231119,-3.55141 0.69336,-4.63867 0.462237,-1.08722 1.389971,-2.04751 2.783203,-2.88086 1.393223,-0.83331 3.203117,-1.24998 5.429687,-1.25 2.669259,2e-5 4.680975,0.47203 6.035157,1.41601 1.354149,0.94404 2.16795,2.10289 2.441406,3.47656 0.273419,1.37372 0.410137,4.2025 0.410156,8.48633 l 0,13.00781 -7.675781,0 0,-2.30468 c -0.481782,0.92448 -1.103526,1.61784 -1.865234,2.08008 -0.761728,0.46223 -1.66993,0.69335 -2.72461,0.69335 -1.380213,0 -2.646488,-0.38737 -3.798828,-1.1621 -1.152345,-0.77474 -1.728517,-2.4707 -1.728516,-5.0879 l 0,-2.1289 c -1e-6,-1.9401 0.305989,-3.26171 0.917969,-3.96485 0.611977,-0.70311 2.128902,-1.52342 4.550781,-2.46093 2.591137,-1.01561 3.977855,-1.69921 4.160157,-2.05078 0.182281,-0.35155 0.273426,-1.06769 0.273437,-2.14844 -1.1e-5,-1.35415 -0.100922,-2.23631 -0.302734,-2.64649 -0.201833,-0.41013 -0.53712,-0.61521 -1.00586,-0.61523 -0.533863,2e-5 -0.865894,0.17255 -0.996093,0.51758 -0.130217,0.34507 -0.195321,1.24025 -0.195313,2.68554 z m 2.5,3.55469 c -1.26303,0.92449 -1.995451,1.69923 -2.197265,2.32421 -0.201832,0.62501 -0.302743,1.52345 -0.302735,2.69532 -8e-6,1.34115 0.08788,2.20703 0.263672,2.59765 0.175772,0.39063 0.524079,0.58595 1.044922,0.58594 0.494781,1e-5 0.817047,-0.15299 0.966797,-0.45898 0.149729,-0.30599 0.224598,-1.11002 0.224609,-2.41211 z" /><path
       inkscape:connector-curvature="0"
       id="path4230"
       d="m 61.644531,177.37834 -6.992187,0 0,-1.40625 c -1.1e-5,-1.1979 -0.06837,-1.95636 -0.205078,-2.27539 -0.136729,-0.31899 -0.478526,-0.4785 -1.025391,-0.47852 -0.442717,2e-5 -0.774748,0.14651 -0.996094,0.43945 -0.221362,0.29299 -0.332039,0.73245 -0.332031,1.31836 -8e-6,0.79429 0.05533,1.37697 0.166016,1.74805 0.110668,0.37111 0.442699,0.77801 0.996093,1.2207 0.553376,0.44273 1.689443,1.08726 3.408203,1.9336 2.291652,1.1198 3.795557,2.17449 4.511719,3.16406 0.716128,0.98959 1.074201,2.42839 1.074219,4.3164 -1.8e-5,2.10939 -0.273455,3.70118 -0.820313,4.7754 -0.546891,1.07422 -1.461604,1.90104 -2.74414,2.48046 -1.282565,0.57943 -2.828788,0.86914 -4.638672,0.86914 -2.005216,0 -3.720709,-0.3125 -5.146484,-0.9375 -1.425785,-0.62499 -2.405602,-1.47135 -2.939454,-2.53906 -0.533855,-1.0677 -0.800782,-2.68228 -0.800781,-4.84375 l 0,-1.25 6.992188,0 0,1.64063 c -8e-6,1.39323 0.08788,2.29818 0.263672,2.71484 0.175772,0.41667 0.524079,0.62501 1.044921,0.625 0.559886,1e-5 0.950511,-0.13997 1.171875,-0.41992 0.221344,-0.27994 0.332021,-0.86914 0.332032,-1.76758 -1.1e-5,-1.23697 -0.14324,-2.01171 -0.429688,-2.32422 -0.299489,-0.31249 -1.829435,-1.23697 -4.589844,-2.77344 -2.317711,-1.30207 -3.73047,-2.48371 -4.238281,-3.54492 -0.507813,-1.06118 -0.761719,-2.32094 -0.761719,-3.77929 0,-2.0703 0.273437,-3.59699 0.820313,-4.58008 0.546873,-0.98305 1.474606,-1.74151 2.783203,-2.27539 1.308588,-0.53383 2.828769,-0.80076 4.560547,-0.80078 1.718739,2e-5 3.180326,0.21812 4.384766,0.65429 1.204412,0.43623 2.12889,1.0124 2.773437,1.72852 0.644515,0.71617 1.035139,1.38023 1.171875,1.99219 0.136701,0.612 0.205061,1.56903 0.205078,2.87109 z" /><path
       sodipodi:nodetypes="cccccscccscssscccccc"
       inkscape:connector-curvature="0"
       id="path4232"
       style="fill:#454a4b;fill-opacity:1"
       d="m 72.679687,165.64005 0,4.08204 2.128907,0 0,4.10156 -2.128907,0 0,13.86719 c -9e-6,1.70573 0.08788,2.65625 0.263672,2.85156 0.175771,0.19532 0.908193,0.29297 2.197266,0.29297 l 2.542373,5.02714 -5.725967,-0.84746 c -1.777519,-0.26308 -3.079433,-0.0749 -3.847656,-0.2246 -0.768234,-0.14974 -1.445316,-0.4948 -2.03125,-1.03516 -0.58594,-0.54036 -0.950523,-1.15885 -1.09375,-1.85547 -0.143231,-0.69661 -0.214846,-2.33398 -0.214844,-4.91211 l 0,-13.16406 -1.699219,0 0,-4.10156 1.699219,0 0,-4.08204 z" /><path
       inkscape:connector-curvature="0"
       id="path4234"
       d="m 94.417969,182.51505 -10.214844,0 0,5.60547 c -9e-6,1.17188 0.08463,1.92709 0.253906,2.26563 0.169262,0.33854 0.494782,0.50782 0.976563,0.50781 0.598947,1e-5 0.999337,-0.2246 1.201172,-0.67383 0.201811,-0.44921 0.302722,-1.31835 0.302734,-2.60742 l 0,-3.41797 7.480469,0 0,1.91406 c -2e-5,1.60157 -0.100931,2.83204 -0.302735,3.69141 -0.201841,0.85938 -0.673846,1.77735 -1.416015,2.75391 -0.742205,0.97656 -1.682959,1.70898 -2.822266,2.19726 -1.139336,0.48828 -2.568371,0.73242 -4.287109,0.73242 -1.666676,0 -3.138028,-0.24088 -4.414063,-0.72265 -1.276046,-0.48177 -2.268884,-1.14258 -2.978515,-1.98242 -0.709638,-0.83984 -1.201174,-1.76432 -1.47461,-2.77344 -0.273439,-1.00911 -0.410157,-2.47721 -0.410156,-4.4043 l 0,-7.55859 c -10e-7,-2.26561 0.305988,-4.05271 0.917969,-5.36133 0.611976,-1.30857 1.614579,-2.31117 3.007812,-3.00781 1.393223,-0.69659 2.994784,-1.0449 4.804688,-1.04492 2.213529,2e-5 4.039699,0.41994 5.478515,1.25976 1.438786,0.83987 2.447899,1.95315 3.027344,3.33985 0.579408,1.38673 0.869121,3.3366 0.869141,5.8496 z m -7.910157,-4.21875 0,-1.89453 c -1.1e-5,-1.34112 -0.07162,-2.20701 -0.214843,-2.59765 -0.14324,-0.39061 -0.436209,-0.58592 -0.878907,-0.58594 -0.546884,2e-5 -0.885426,0.16604 -1.015625,0.49805 -0.130217,0.33205 -0.195321,1.22723 -0.195312,2.68554 l 0,1.89453 z" /><path
       inkscape:connector-curvature="0"
       id="path4236"
       d="m 104.90625,169.09709 -0.3125,3.39843 c 1.14582,-2.43487 2.80598,-3.72393 4.98047,-3.86718 l 0,9.12109 c -1.44533,2e-5 -2.50652,0.19533 -3.18359,0.58594 -0.6771,0.39064 -1.09376,0.93426 -1.25,1.63086 -0.15626,0.69663 -0.23439,2.30144 -0.23438,4.81445 l 0,10.23437 -7.890625,0 0,-25.91796 z" /><path
       inkscape:connector-curvature="0"
       id="path4238"
       d="m 118.57813,163.39396 8.20312,0 c 2.59113,3e-5 4.55402,0.20186 5.88867,0.60547 1.33462,0.40368 2.41209,1.22073 3.23242,2.45117 0.8203,1.2305 1.23045,3.21292 1.23047,5.94727 -2e-5,1.84898 -0.28973,3.13804 -0.86914,3.86718 -0.57944,0.72919 -1.72202,1.28908 -3.42773,1.67969 1.90102,0.42971 3.19008,1.1426 3.86718,2.13867 0.67707,0.99611 1.01561,2.5228 1.01563,4.58008 l 0,2.92969 c -2e-5,2.13542 -0.24416,3.71745 -0.73242,4.74609 -0.4883,1.02865 -1.2663,1.73178 -2.33399,2.10938 -1.06772,0.3776 -3.25522,0.5664 -6.5625,0.5664 l -9.51171,0 z m 8.22265,5.41016 0,7.03125 c 0.35155,-0.013 0.62499,-0.0195 0.82031,-0.0195 0.80728,2e-5 1.32161,-0.19855 1.54297,-0.59571 0.22134,-0.39711 0.33202,-1.53318 0.33203,-3.4082 -1e-5,-0.98956 -0.0911,-1.68292 -0.27343,-2.08008 -0.18231,-0.39711 -0.41994,-0.64776 -0.71289,-0.75195 -0.29298,-0.10414 -0.86265,-0.16274 -1.70899,-0.17578 z m 0,11.95312 0,8.84766 c 1.15884,-0.0391 1.89778,-0.22135 2.2168,-0.54688 0.319,-0.32551 0.4785,-1.12629 0.47851,-2.40234 l 0,-2.94922 c -1e-5,-1.35415 -0.14324,-2.17446 -0.42968,-2.46094 -0.28647,-0.28644 -1.04168,-0.4492 -2.26563,-0.48828 z" /><path
       inkscape:connector-curvature="0"
       id="path4240"
       d="m 148.34375,169.09709 -0.3125,3.39843 c 1.14582,-2.43487 2.80598,-3.72393 4.98047,-3.86718 l 0,9.12109 c -1.44533,2e-5 -2.50652,0.19533 -3.1836,0.58594 -0.67709,0.39064 -1.09375,0.93426 -1.25,1.63086 -0.15625,0.69663 -0.23438,2.30144 -0.23437,4.81445 l 0,10.23437 -7.89063,0 0,-25.91796 z" /><path
       inkscape:connector-curvature="0"
       id="path4242"
       d="m 161.80078,179.13615 -7.40234,0 0,-1.73828 c 0,-2.00519 0.23112,-3.55141 0.69336,-4.63867 0.46223,-1.08722 1.38997,-2.04751 2.7832,-2.88086 1.39322,-0.83331 3.20312,-1.24998 5.42969,-1.25 2.66926,2e-5 4.68097,0.47203 6.03515,1.41601 1.35415,0.94404 2.16795,2.10289 2.44141,3.47656 0.27342,1.37372 0.41014,4.2025 0.41016,8.48633 l 0,13.00781 -7.67579,0 0,-2.30468 c -0.48178,0.92448 -1.10352,1.61784 -1.86523,2.08008 -0.76173,0.46223 -1.66993,0.69335 -2.72461,0.69335 -1.38021,0 -2.64649,-0.38737 -3.79883,-1.1621 -1.15234,-0.77474 -1.72851,-2.4707 -1.72851,-5.0879 l 0,-2.1289 c 0,-1.9401 0.30599,-3.26171 0.91797,-3.96485 0.61197,-0.70311 2.1289,-1.52342 4.55078,-2.46093 2.59113,-1.01561 3.97785,-1.69921 4.16015,-2.05078 0.18228,-0.35155 0.27343,-1.06769 0.27344,-2.14844 -1e-5,-1.35415 -0.10092,-2.23631 -0.30273,-2.64649 -0.20184,-0.41013 -0.53712,-0.61521 -1.00586,-0.61523 -0.53387,2e-5 -0.8659,0.17255 -0.9961,0.51758 -0.13021,0.34507 -0.19532,1.24025 -0.19531,2.68554 z m 2.5,3.55469 c -1.26303,0.92449 -1.99545,1.69923 -2.19726,2.32421 -0.20184,0.62501 -0.30275,1.52345 -0.30274,2.69532 -1e-5,1.34115 0.0879,2.20703 0.26367,2.59765 0.17578,0.39063 0.52408,0.58595 1.04492,0.58594 0.49479,1e-5 0.81705,-0.15299 0.9668,-0.45898 0.14973,-0.30599 0.2246,-1.11002 0.22461,-2.41211 z" /><path
       inkscape:connector-curvature="0"
       id="path4244"
       d="m 183.03125,163.39396 0,4.12109 -8.125,0 0,-4.12109 z m 0,5.70313 0,25.91796 -8.125,0 0,-25.91796 z" /><path
       inkscape:connector-curvature="0"
       id="path4246"
       d="m 193.87109,169.09709 -0.13672,2.38281 c 0.57291,-0.9505 1.27278,-1.66339 2.09961,-2.13867 0.82682,-0.47524 1.78059,-0.71287 2.86133,-0.71289 1.35415,2e-5 2.46092,0.31903 3.32031,0.95703 0.85936,0.63804 1.41275,1.44208 1.66016,2.41211 0.24738,0.97007 0.37108,2.58791 0.37109,4.85351 l 0,18.16406 -7.89062,0 0,-17.94921 c -1e-5,-1.78384 -0.0586,-2.87108 -0.17578,-3.26172 -0.1172,-0.39061 -0.44272,-0.58592 -0.97656,-0.58594 -0.55991,2e-5 -0.91147,0.22463 -1.05469,0.67383 -0.14324,0.44924 -0.21485,1.65041 -0.21485,3.60351 l 0,17.51953 -7.89062,0 0,-25.91796 z" /></g></g></svg>